<svg width="24" height="24" viewBox="0 0 24 24" fill="none" xmlns="http://www.w3.org/2000/svg">
<path fill-rule="evenodd" clip-rule="evenodd" d="M10.5 4.20001L10.4242 4.19998C10.0342 4.19976 9.72626 4.19959 9.4537 4.25381C8.34297 4.47475 7.47469 5.34302 7.25375 6.45375C7.2099 6.67422 7.20163 6.91783 7.20019 7.20932C7.06536 7.21375 6.93907 7.22028 6.82121 7.22991C6.43823 7.2612 6.07427 7.32915 5.72878 7.50519C5.20193 7.77363 4.77358 8.20198 4.50513 8.72883C4.3291 9.07432 4.26115 9.43829 4.22986 9.82126C4.19993 10.1876 4.19994 10.6352 4.19995 11.1679V11.1679V11.2V14.8V14.8321V14.8322C4.19994 15.3648 4.19993 15.8125 4.22986 16.1787C4.26115 16.5617 4.3291 16.9257 4.50513 17.2712C4.77358 17.798 5.20193 18.2264 5.72878 18.4948C6.07427 18.6709 6.43823 18.7388 6.82121 18.7701C7.18751 18.8 7.63514 18.8 8.16784 18.8H8.19995H12.8H12.8321C13.3648 18.8 13.8124 18.8 14.1787 18.7701C14.5617 18.7388 14.9256 18.6709 15.2711 18.4948C15.798 18.2264 16.2263 17.798 16.4948 17.2712C16.6708 16.9257 16.7388 16.5617 16.77 16.1787C16.7798 16.0594 16.7864 15.9314 16.7908 15.7946C16.9189 15.7915 17.0381 15.7867 17.1487 15.7791C17.4684 15.7573 17.774 15.7101 18.0715 15.5869C18.7575 15.3027 19.3026 14.7576 19.5868 14.0715C19.71 13.774 19.7573 13.4684 19.7791 13.1488C19.8 12.8424 19.8 12.4699 19.8 12.0266V12V8.20001V8.1679C19.8 7.63519 19.8 7.18757 19.77 6.82126C19.7388 6.43829 19.6708 6.07432 19.4948 5.72883C19.2263 5.20198 18.798 4.77363 18.2711 4.50519C17.9256 4.32915 17.5617 4.2612 17.1787 4.22991C16.8124 4.19998 16.3648 4.19999 15.8321 4.20001L15.8 4.20001H10.5ZM16.8 14.1938C16.8878 14.1913 16.967 14.1878 17.0398 14.1828C17.278 14.1666 17.3891 14.1377 17.4592 14.1087C17.7532 13.9869 17.9868 13.7533 18.1086 13.4592C18.1376 13.3892 18.1665 13.278 18.1828 13.0399C18.1995 12.7945 18.2 12.4769 18.2 12V8.20001C18.2 7.62675 18.1993 7.24493 18.1754 6.95156C18.1522 6.66752 18.1111 6.53755 18.0692 6.45522C17.9541 6.22942 17.7705 6.04585 17.5447 5.9308C17.4624 5.88884 17.3324 5.8478 17.0484 5.8246C16.755 5.80063 16.3732 5.80001 15.8 5.80001H10.5C9.99695 5.80001 9.86228 5.80388 9.76584 5.82306C9.28982 5.91775 8.9177 6.28987 8.82301 6.7659C8.80837 6.83948 8.80265 6.93531 8.80076 7.20001H12.8L12.8321 7.20001C13.3648 7.19999 13.8124 7.19998 14.1787 7.22991C14.5617 7.2612 14.9256 7.32915 15.2711 7.50519C15.798 7.77363 16.2263 8.20198 16.4948 8.72883C16.6708 9.07432 16.7388 9.43829 16.77 9.82126C16.8 10.1876 16.8 10.6352 16.8 11.1679V11.2V14.1938ZM6.45516 8.9308C6.5375 8.88884 6.66747 8.8478 6.9515 8.8246C7.24487 8.80063 7.6267 8.80001 8.19995 8.80001H12.8C13.3732 8.80001 13.755 8.80063 14.0484 8.8246C14.3324 8.8478 14.4624 8.88884 14.5447 8.9308C14.7705 9.04585 14.9541 9.22942 15.0692 9.45522C15.1111 9.53755 15.1522 9.66752 15.1754 9.95155C15.1993 10.2449 15.2 10.6268 15.2 11.2V14.8C15.2 15.3733 15.1993 15.7551 15.1754 16.0485C15.1522 16.3325 15.1111 16.4625 15.0692 16.5448C14.9541 16.7706 14.7705 16.9542 14.5447 17.0692C14.4624 17.1112 14.3324 17.1522 14.0484 17.1754C13.755 17.1994 13.3732 17.2 12.8 17.2H8.19995C7.6267 17.2 7.24487 17.1994 6.9515 17.1754C6.66747 17.1522 6.5375 17.1112 6.45516 17.0692C6.22937 16.9542 6.04579 16.7706 5.93074 16.5448C5.88879 16.4625 5.84775 16.3325 5.82454 16.0485C5.80057 15.7551 5.79995 15.3733 5.79995 14.8V11.2C5.79995 10.6268 5.80057 10.2449 5.82454 9.95155C5.84775 9.66752 5.88879 9.53755 5.93074 9.45522C6.04579 9.22942 6.22937 9.04585 6.45516 8.9308Z" fill="currentColor"/>
</svg>
