<svg width="24" height="24" viewBox="0 0 24 24" fill="none" xmlns="http://www.w3.org/2000/svg">
<path d="M17.8182 8.62502L14.303 12.25H16.9394C16.9394 13.6921 16.3839 15.0752 15.395 16.0949C14.4062 17.1146 13.0651 17.6875 11.6667 17.6875C11.0501 17.699 10.4394 17.5898 9.86607 17.3681C9.46449 17.2128 8.99621 17.2695 8.69648 17.5786C8.27994 18.0082 8.36556 18.7161 8.91703 18.9483C9.78641 19.3142 10.7203 19.5031 11.6667 19.5C13.5312 19.5 15.3194 18.7361 16.6378 17.3765C17.9563 16.0169 18.697 14.1728 18.697 12.25H21.3333L17.8182 8.62502ZM6.39394 12.25C6.39394 10.8079 6.94946 9.42485 7.93828 8.40513C8.92711 7.3854 10.2683 6.81253 11.6667 6.81253C12.2852 6.82464 12.896 6.9412 13.4751 7.15606C13.8723 7.30343 14.3298 7.23808 14.6247 6.93393C15.0475 6.49793 14.9605 5.77922 14.4002 5.54498C13.5354 5.18347 12.6072 4.99693 11.6667 5.00004C9.80211 5.00004 8.01393 5.76387 6.69549 7.1235C5.37705 8.48313 4.63636 10.3272 4.63636 12.25H2L5.51515 15.875L9.0303 12.25H6.39394Z" fill="currentColor"/>
</svg>
